<?xml version="1.0" encoding="utf-8"?>
<!-- Generator: Adobe Illustrator 16.0.4, SVG Export Plug-In . SVG Version: 6.00 Build 0)  -->
<!DOCTYPE svg PUBLIC "-//W3C//DTD SVG 1.1//EN" "http://www.w3.org/Graphics/SVG/1.1/DTD/svg11.dtd">
<svg version="1.1" id="Layer_1" xmlns="http://www.w3.org/2000/svg" xmlns:xlink="http://www.w3.org/1999/xlink" x="0px" y="0px"
	 width="155px" height="85px" viewBox="0 0 155 85" enable-background="new 0 0 155 85" xml:space="preserve">
<g>
	<g>
		<defs>
			<rect id="SVGID_1_" x="-212.066" y="-142.059" width="528.84" height="342.19"/>
		</defs>
		<clipPath id="SVGID_2_">
			<use xlink:href="#SVGID_1_"  overflow="visible"/>
		</clipPath>
		<path clip-path="url(#SVGID_2_)" fill="#FFFFFF" d="M25.434,24.295l15.123-7.706v15.668H25.402L25.434,24.295z M25.402,59.902
			v-14.48h6.582l9.825,14.48h23.759l-12.233-17.98l8.348-8.348V4.646H40.492L25.37,12.352V6.829c0-1.22-0.996-2.183-2.184-2.183
			H4.243v55.256H25.402z"/>
	</g>
</g>
<polygon fill="#FFFFFF" points="150.974,3.967 150.299,5.701 149.625,3.967 149.015,3.967 149.015,6.278 149.4,6.278 149.4,4.352 
	149.433,4.352 150.171,6.278 150.428,6.278 151.166,4.352 151.198,4.352 151.198,6.278 151.552,6.278 151.552,3.967 "/>
<polygon fill="#FFFFFF" points="146.735,4.256 147.474,4.256 147.474,6.278 147.827,6.278 147.827,4.256 148.565,4.256 
	148.565,3.967 146.735,3.967 "/>
<g>
	<g>
		<defs>
			<rect id="SVGID_3_" x="-212.066" y="-143.059" width="528.84" height="342.19"/>
		</defs>
		<clipPath id="SVGID_4_">
			<use xlink:href="#SVGID_3_"  overflow="visible"/>
		</clipPath>
		<path clip-path="url(#SVGID_4_)" fill="#FFFFFF" d="M114.949,15.461V3.614H70.352v50.921c0,2.377,1.926,4.336,4.334,4.336h40.263
			V47.023H91.543v-9.857h23.406V25.318H91.543v-9.857H114.949z"/>
	</g>
	<g>
		<defs>
			<rect id="SVGID_5_" x="-212.066" y="-143.059" width="528.84" height="342.19"/>
		</defs>
		<clipPath id="SVGID_6_">
			<use xlink:href="#SVGID_5_"  overflow="visible"/>
		</clipPath>
		<path clip-path="url(#SVGID_6_)" fill="#FFFFFF" d="M123.554,58.871h16.952c2.344,0,4.206-1.895,4.206-4.207V3.614h-21.19v55.257
			H123.554z"/>
	</g>
</g>
<path fill="#FFFFFF" d="M7.229,74.346h3.403l-1.605-4.783H8.962L7.229,74.346z M11.082,75.566h-4.27l-0.963,2.697H7.39v1.379H2.927
	v-1.379h1.316l4.078-10.82h2.376l3.917,10.82h1.573v1.379h-5.972v-1.379h1.798L11.082,75.566z"/>
<g>
	<g>
		<defs>
			<rect id="SVGID_7_" x="-212.066" y="-143.059" width="528.84" height="342.19"/>
		</defs>
		<clipPath id="SVGID_8_">
			<use xlink:href="#SVGID_7_"  overflow="visible"/>
		</clipPath>
		<path clip-path="url(#SVGID_8_)" fill="#FFFFFF" d="M23.507,78.295c2.921,0,4.142-1.285,4.142-4.848
			c0-3.211-1.252-4.592-4.271-4.592h-1.124v9.408h1.252V78.295z M17.953,78.295h1.895V68.92h-1.895v-1.381h5.33
			c4.72,0,7.031,2.408,7.031,5.939c0,3.436-2.151,6.197-6.903,6.197h-5.458V78.295z"/>
	</g>
</g>
<polygon fill="#FFFFFF" points="33.107,68.92 31.534,68.92 31.534,67.539 37.506,67.539 37.506,68.92 35.708,68.92 38.694,77.365 
	38.823,77.365 41.905,68.92 40.364,68.92 40.364,67.539 44.827,67.539 44.827,68.92 43.478,68.92 39.336,79.74 37.153,79.74 "/>
<g>
	<g>
		<defs>
			<rect id="SVGID_9_" x="-212.066" y="-143.059" width="528.84" height="342.19"/>
		</defs>
		<clipPath id="SVGID_10_">
			<use xlink:href="#SVGID_9_"  overflow="visible"/>
		</clipPath>
		<path clip-path="url(#SVGID_10_)" fill="#FFFFFF" d="M47.042,78.295h1.895V68.92h-1.895v-1.381h11.109v4.109h-1.188
			c-0.578-2.246-0.802-2.762-2.279-2.762h-3.371v3.951h1.156c1.22,0,1.38-0.193,1.669-1.799h1.188v4.881h-1.188
			c-0.257-1.639-0.449-1.832-1.669-1.832h-1.156v4.207h3.274c1.734,0,1.959-0.609,2.537-3.146h1.188v4.527h-11.27V78.295z"/>
	</g>
</g>
<polygon fill="#FFFFFF" points="64.733,70.172 64.572,70.172 64.572,78.295 66.403,78.295 66.403,79.676 61.362,79.676 
	61.362,78.295 63.096,78.295 63.096,68.92 61.362,68.92 61.362,67.539 65.889,67.539 71.572,76.24 71.732,76.24 71.732,68.92 
	69.902,68.92 69.902,67.539 74.943,67.539 74.943,68.92 73.209,68.92 73.209,79.9 71.123,79.9 "/>
<g>
	<g>
		<defs>
			<rect id="SVGID_11_" x="-212.066" y="-143.059" width="528.84" height="342.19"/>
		</defs>
		<clipPath id="SVGID_12_">
			<use xlink:href="#SVGID_11_"  overflow="visible"/>
		</clipPath>
		<path clip-path="url(#SVGID_12_)" fill="#FFFFFF" d="M79.92,78.295h2.055v-9.568H81.3c-1.572,0-1.894,0.514-2.696,3.373H77.48
			v-4.561h11.366V72.1h-1.156c-0.802-2.859-1.155-3.373-2.697-3.373h-0.673v9.568h2.054v1.381H79.92V78.295z"/>
	</g>
	<g>
		<defs>
			<rect id="SVGID_13_" x="-212.066" y="-143.059" width="528.84" height="342.19"/>
		</defs>
		<clipPath id="SVGID_14_">
			<use xlink:href="#SVGID_13_"  overflow="visible"/>
		</clipPath>
		<path clip-path="url(#SVGID_14_)" fill="#FFFFFF" d="M92.987,75.791V68.92h-1.701v-1.381h5.843v1.381h-1.766v6.357
			c0,2.312,1.093,3.146,3.179,3.146c0.932,0,1.573-0.289,2.087-0.803c0.579-0.578,0.771-1.414,0.771-2.762V68.92h-1.83v-1.381h4.944
			v1.381h-1.637v6.838c0,2.248-1.638,4.238-4.913,4.238C94.657,79.965,92.987,78.295,92.987,75.791"/>
	</g>
	<g>
		<defs>
			<rect id="SVGID_15_" x="-212.066" y="-143.059" width="528.84" height="342.19"/>
		</defs>
		<clipPath id="SVGID_16_">
			<use xlink:href="#SVGID_15_"  overflow="visible"/>
		</clipPath>
		<path clip-path="url(#SVGID_16_)" fill="#FFFFFF" d="M112.895,73.062c1.766,0,2.376-0.74,2.376-2.184
			c0-1.285-0.514-1.959-2.184-1.959h-1.959v4.174h1.767V73.062z M111.064,78.295h1.894v1.381h-6.132v-1.381h1.894V68.92h-1.894
			v-1.381h6.261c3.692,0,4.784,1.574,4.784,3.113c0,1.35-0.803,2.635-3.371,2.986v0.162c2.055,0.32,2.696,1.283,2.793,2.633
			l0.064,1.09c0.063,0.676,0.225,0.9,0.546,0.9c0.289,0,0.514-0.256,0.803-0.932l0.93,0.385c-0.353,1.221-1.06,2.055-2.343,2.055
			c-1.445,0-2.409-0.705-2.44-2.535l-0.032-1.125c-0.032-1.283-0.32-1.895-1.894-1.895h-1.862V78.295L111.064,78.295z"/>
	</g>
	<g>
		<defs>
			<rect id="SVGID_17_" x="-212.066" y="-143.059" width="528.84" height="342.19"/>
		</defs>
		<clipPath id="SVGID_18_">
			<use xlink:href="#SVGID_17_"  overflow="visible"/>
		</clipPath>
		<path clip-path="url(#SVGID_18_)" fill="#FFFFFF" d="M121.274,78.295h1.895V68.92h-1.895v-1.381h11.077v4.109h-1.188
			c-0.577-2.246-0.803-2.762-2.28-2.762h-3.37v3.951h1.155c1.221,0,1.381-0.193,1.67-1.799h1.188v4.881h-1.188
			c-0.258-1.639-0.449-1.832-1.67-1.832h-1.155v4.207h3.274c1.734,0,1.958-0.609,2.536-3.146h1.188v4.527h-11.27v-1.381H121.274z"/>
	</g>
	<g>
		<defs>
			<rect id="SVGID_19_" x="-212.066" y="-143.059" width="528.84" height="342.19"/>
		</defs>
		<clipPath id="SVGID_20_">
			<use xlink:href="#SVGID_19_"  overflow="visible"/>
		</clipPath>
		<path clip-path="url(#SVGID_20_)" fill="#FFFFFF" d="M135.884,75.471h1.316c1.123,2.279,2.022,3.178,3.852,3.178
			c1.381,0,2.184-0.707,2.184-1.83c0-1.316-1.413-1.67-3.146-2.15c-1.96-0.514-4.079-1.189-4.079-3.758
			c0-2.023,1.67-3.66,4.015-3.66c1.155,0,2.376,0.482,3.018,1.316l0.385-1.252h1.381v4.238h-1.316
			c-0.963-2.248-1.959-2.986-3.436-2.986c-1.188,0-1.895,0.707-1.895,1.703c0,1.443,1.51,1.797,3.244,2.246
			c1.926,0.449,3.98,1.059,3.98,3.596c0,2.215-1.798,3.885-4.271,3.885c-1.413,0-2.729-0.545-3.436-1.379l-0.417,1.314h-1.412
			v-4.461H135.884z"/>
	</g>
</g>
<polygon id="_x3C_Slice_x3E_" fill="none" points="3.298,83 3.298,2.666 152.666,2 152.666,83 "/>
</svg>
