<?xml version="1.0" encoding="utf-8"?>
<!-- Generator: Adobe Illustrator 17.1.0, SVG Export Plug-In . SVG Version: 6.00 Build 0)  -->
<!DOCTYPE svg PUBLIC "-//W3C//DTD SVG 1.1//EN" "http://www.w3.org/Graphics/SVG/1.1/DTD/svg11.dtd">
<svg version="1.1" id="Layer_1" xmlns="http://www.w3.org/2000/svg" xmlns:xlink="http://www.w3.org/1999/xlink" x="0px" y="0px"
	 viewBox="429.6 467.9 140.4 71.7" enable-background="new 429.6 467.9 140.4 71.7" xml:space="preserve">
<g>
	<g>
		<defs>
			<rect id="SVGID_1_" x="315.3" y="383.9" width="370.6" height="239.8"/>
		</defs>
		<use xlink:href="#SVGID_1_"  overflow="visible" fill="#FFFFFF"/>
		<clipPath id="SVGID_2_">
			<use xlink:href="#SVGID_1_"  overflow="visible"/>
		</clipPath>
		<path clip-path="url(#SVGID_2_)" fill="#FFFFFF" d="M535.3,479.1v-11.2h-42.1v48c0,2.2,1.8,4.1,4.1,4.1h38v-11.2h-22.1v-9.3h22.1
			v-11.2h-22.1v-9.3H535.3z"/>
	</g>
	<g>
		<defs>
			<rect id="SVGID_3_" x="315.3" y="383.9" width="370.6" height="239.8"/>
		</defs>
		<use xlink:href="#SVGID_3_"  overflow="visible" fill="#FFFFFF"/>
		<clipPath id="SVGID_4_">
			<use xlink:href="#SVGID_3_"  overflow="visible"/>
		</clipPath>
		<path clip-path="url(#SVGID_4_)" fill="#FFFFFF" d="M543.4,520h16c2.2,0,4-1.8,4-4v-48.1h-20L543.4,520L543.4,520z"/>
	</g>
</g>
<g>
	<g>
		<defs>
			<rect id="SVGID_5_" x="315.3" y="383.9" width="370.6" height="239.8"/>
		</defs>
		<use xlink:href="#SVGID_5_"  overflow="visible" fill="#FFFFFF"/>
		<clipPath id="SVGID_6_">
			<use xlink:href="#SVGID_5_"  overflow="visible"/>
		</clipPath>
		<path clip-path="url(#SVGID_6_)" fill="#FFFFFF" d="M450.8,486.4l14.3-7.3V494h-14.3L450.8,486.4z M450.8,520v-13.7h6.2l9.3,13.7
			h22.4l-11.5-17l7.9-7.9v-27.3h-20l-14.3,7.3V470c0-1.2-0.9-2.1-2.1-2.1h-17.9V520L450.8,520L450.8,520z"/>
	</g>
</g>
<g>
	<polygon fill="#FFFFFF" points="569.2,468.2 568.6,469.9 567.9,468.2 567.4,468.2 567.4,470.4 567.7,470.4 567.7,468.6 
		567.8,468.6 568.5,470.4 568.7,470.4 569.4,468.6 569.4,468.6 569.4,470.4 569.8,470.4 569.8,468.2 	"/>
	<polygon fill="#FFFFFF" points="565.2,468.5 565.9,468.5 565.9,470.4 566.3,470.4 566.3,468.5 566.9,468.5 566.9,468.2 
		565.2,468.2 	"/>
	<path fill="#FFFFFF" d="M433.7,534.6h3.2l-1.5-4.5h-0.1L433.7,534.6z M437.3,535.7h-4l-0.9,2.5h1.5v1.3h-4.2v-1.3h1.2l3.8-10.2h2.2
		l3.7,10.2h1.5v1.3h-5.6v-1.3h1.7L437.3,535.7z"/>
	<g>
		<g>
			<defs>
				<rect id="SVGID_7_" x="315.3" y="383.9" width="370.6" height="239.8"/>
			</defs>
			<use xlink:href="#SVGID_7_"  overflow="visible" fill="#FFFFFF"/>
			<clipPath id="SVGID_8_">
				<use xlink:href="#SVGID_7_"  overflow="visible"/>
			</clipPath>
			<path clip-path="url(#SVGID_8_)" fill="#FFFFFF" d="M449,538.3c2.8,0,3.9-1.2,3.9-4.6c0-3-1.2-4.3-4-4.3h-1.1v8.9L449,538.3
				L449,538.3z M443.8,538.3h1.8v-8.8h-1.8v-1.3h5c4.5,0,6.6,2.3,6.6,5.6c0,3.2-2,5.8-6.5,5.8h-5.1
				C443.8,539.6,443.8,538.3,443.8,538.3z"/>
		</g>
	</g>
	<polygon fill="#FFFFFF" points="458.1,529.5 456.6,529.5 456.6,528.2 462.2,528.2 462.2,529.5 460.5,529.5 463.4,537.4 
		463.5,537.4 466.4,529.5 464.9,529.5 464.9,528.2 469.1,528.2 469.1,529.5 467.9,529.5 464,539.7 461.9,539.7 	"/>
	<g>
		<g>
			<defs>
				<rect id="SVGID_9_" x="315.3" y="383.9" width="370.6" height="239.8"/>
			</defs>
			<use xlink:href="#SVGID_9_"  overflow="visible" fill="#FFFFFF"/>
			<clipPath id="SVGID_10_">
				<use xlink:href="#SVGID_9_"  overflow="visible"/>
			</clipPath>
			<path clip-path="url(#SVGID_10_)" fill="#FFFFFF" d="M471.2,538.3h1.8v-8.8h-1.8v-1.3h10.5v3.9h-1.1c-0.5-2.1-0.8-2.6-2.1-2.6
				h-3.2v3.7h1.1c1.2,0,1.3-0.2,1.6-1.7h1.1v4.6h-1.1c-0.2-1.5-0.4-1.7-1.6-1.7h-1.1v4h3.1c1.6,0,1.8-0.6,2.4-3h1.1v4.3h-10.6V538.3
				z"/>
		</g>
	</g>
	<polygon fill="#FFFFFF" points="487.9,530.6 487.8,530.6 487.8,538.3 489.5,538.3 489.5,539.6 484.7,539.6 484.7,538.3 
		486.4,538.3 486.4,529.5 484.7,529.5 484.7,528.2 489,528.2 494.4,536.4 494.5,536.4 494.5,529.5 492.8,529.5 492.8,528.2 
		497.5,528.2 497.5,529.5 495.9,529.5 495.9,539.8 493.9,539.8 	"/>
	<g>
		<g>
			<defs>
				<rect id="SVGID_11_" x="315.3" y="383.9" width="370.6" height="239.8"/>
			</defs>
			<use xlink:href="#SVGID_11_"  overflow="visible" fill="#FFFFFF"/>
			<clipPath id="SVGID_12_">
				<use xlink:href="#SVGID_11_"  overflow="visible"/>
			</clipPath>
			<path clip-path="url(#SVGID_12_)" fill="#FFFFFF" d="M502.2,538.3h1.9v-9h-0.6c-1.5,0-1.8,0.5-2.5,3.2h-1.1v-4.3h10.7v4.3h-1.1
				c-0.8-2.7-1.1-3.2-2.5-3.2h-0.6v9h1.9v1.3h-6.1V538.3L502.2,538.3z"/>
		</g>
		<g>
			<defs>
				<rect id="SVGID_13_" x="315.3" y="383.9" width="370.6" height="239.8"/>
			</defs>
			<use xlink:href="#SVGID_13_"  overflow="visible" fill="#FFFFFF"/>
			<clipPath id="SVGID_14_">
				<use xlink:href="#SVGID_13_"  overflow="visible"/>
			</clipPath>
			<path clip-path="url(#SVGID_14_)" fill="#FFFFFF" d="M514.5,535.9v-6.5h-1.6v-1.3h5.5v1.3h-1.7v6c0,2.2,1,3,3,3
				c0.9,0,1.5-0.3,2-0.8c0.5-0.5,0.7-1.3,0.7-2.6v-5.6h-1.7v-1.3h4.7v1.3h-1.5v6.4c0,2.1-1.5,4-4.6,4
				C516.1,539.9,514.5,538.3,514.5,535.9"/>
		</g>
		<g>
			<defs>
				<rect id="SVGID_15_" x="315.3" y="383.9" width="370.6" height="239.8"/>
			</defs>
			<use xlink:href="#SVGID_15_"  overflow="visible" fill="#FFFFFF"/>
			<clipPath id="SVGID_16_">
				<use xlink:href="#SVGID_15_"  overflow="visible"/>
			</clipPath>
			<path clip-path="url(#SVGID_16_)" fill="#FFFFFF" d="M533.3,533.4c1.7,0,2.2-0.7,2.2-2.1c0-1.2-0.5-1.8-2.1-1.8h-1.8v3.9
				L533.3,533.4L533.3,533.4z M531.6,538.3h1.8v1.3h-5.8v-1.3h1.8v-8.8h-1.8v-1.3h5.9c3.5,0,4.5,1.5,4.5,2.9c0,1.3-0.8,2.5-3.2,2.8
				v0.2c1.9,0.3,2.5,1.2,2.6,2.5l0.1,1c0.1,0.6,0.2,0.8,0.5,0.8c0.3,0,0.5-0.2,0.8-0.9l0.9,0.4c-0.3,1.2-1,1.9-2.2,1.9
				c-1.4,0-2.3-0.7-2.3-2.4l0-1.1c0-1.2-0.3-1.8-1.8-1.8h-1.8V538.3L531.6,538.3z"/>
		</g>
		<g>
			<defs>
				<rect id="SVGID_17_" x="315.3" y="383.9" width="370.6" height="239.8"/>
			</defs>
			<use xlink:href="#SVGID_17_"  overflow="visible" fill="#FFFFFF"/>
			<clipPath id="SVGID_18_">
				<use xlink:href="#SVGID_17_"  overflow="visible"/>
			</clipPath>
			<path clip-path="url(#SVGID_18_)" fill="#FFFFFF" d="M541.2,538.3h1.8v-8.8h-1.8v-1.3h10.4v3.9h-1.1c-0.5-2.1-0.8-2.6-2.1-2.6
				h-3.2v3.7h1.1c1.2,0,1.3-0.2,1.6-1.7h1.1v4.6h-1.1c-0.2-1.5-0.4-1.7-1.6-1.7h-1.1v4h3.1c1.6,0,1.8-0.6,2.4-3h1.1v4.3h-10.6
				L541.2,538.3L541.2,538.3z"/>
		</g>
		<g>
			<defs>
				<rect id="SVGID_19_" x="315.3" y="383.9" width="370.6" height="239.8"/>
			</defs>
			<use xlink:href="#SVGID_19_"  overflow="visible" fill="#FFFFFF"/>
			<clipPath id="SVGID_20_">
				<use xlink:href="#SVGID_19_"  overflow="visible"/>
			</clipPath>
			<path clip-path="url(#SVGID_20_)" fill="#FFFFFF" d="M555,535.6h1.2c1.1,2.1,1.9,3,3.6,3c1.3,0,2.1-0.7,2.1-1.7
				c0-1.2-1.3-1.6-3-2c-1.8-0.5-3.8-1.1-3.8-3.5c0-1.9,1.6-3.5,3.8-3.5c1.1,0,2.2,0.5,2.8,1.2l0.4-1.2h1.3v4h-1.2
				c-0.9-2.1-1.8-2.8-3.2-2.8c-1.1,0-1.8,0.7-1.8,1.6c0,1.4,1.4,1.7,3.1,2.1c1.8,0.4,3.8,1,3.8,3.4c0,2.1-1.7,3.7-4,3.7
				c-1.3,0-2.6-0.5-3.2-1.3l-0.4,1.2H555L555,535.6L555,535.6z"/>
		</g>
	</g>
</g>
</svg>
