<?xml version="1.0" encoding="utf-8"?>
<!-- Generator: Adobe Illustrator 17.1.0, SVG Export Plug-In . SVG Version: 6.00 Build 0)  -->
<!DOCTYPE svg PUBLIC "-//W3C//DTD SVG 1.1//EN" "http://www.w3.org/Graphics/SVG/1.1/DTD/svg11.dtd">
<svg version="1.1" id="Layer_1" xmlns="http://www.w3.org/2000/svg" xmlns:xlink="http://www.w3.org/1999/xlink" x="0px" y="0px"
	 viewBox="0 0 462.9 236.9" enable-background="new 0 0 462.9 236.9" xml:space="preserve">
<g>
	<defs>
		<rect id="SVGID_1_" x="-377.8" y="-277.5" width="1224" height="792"/>
	</defs>
	<clipPath id="SVGID_2_">
		<use xlink:href="#SVGID_1_"  overflow="visible"/>
	</clipPath>
	<path clip-path="url(#SVGID_2_)" d="M70.1,61.3l47.1-24v48.8H70L70.1,61.3z M70,172.2v-45.1h20.5l30.6,45.1h74l-38.1-56l26-26V0.1
		h-66l-47.1,24V6.9c0-3.8-3.1-6.8-6.8-6.8H4.1v172.1H70z"/>
</g>
<polygon points="461.1,1.1 459,6.5 456.9,1.1 455,1.1 455,8.3 456.2,8.3 456.2,2.3 456.3,2.3 458.6,8.3 459.4,8.3 461.7,2.3 
	461.8,2.3 461.8,8.3 462.9,8.3 462.9,1.1 "/>
<polygon points="447.9,2 450.2,2 450.2,8.3 451.3,8.3 451.3,2 453.6,2 453.6,1.1 447.9,1.1 "/>
<g>
	<defs>
		<rect id="SVGID_3_" x="-377.8" y="-277.5" width="1224" height="792"/>
	</defs>
	<clipPath id="SVGID_4_">
		<use xlink:href="#SVGID_3_"  overflow="visible"/>
	</clipPath>
	<path clip-path="url(#SVGID_4_)" d="M348.9,36.9V0H210v158.6c0,7.4,6,13.5,13.5,13.5h125.4v-36.9H276v-30.7h72.9V67.6H276V36.9
		H348.9z"/>
	<path clip-path="url(#SVGID_4_)" d="M375.7,172.1h52.8c7.3,0,13.1-5.9,13.1-13.1V0h-66V172.1z"/>
</g>
<path d="M13.4,220.3h10.6L19,205.4h-0.2L13.4,220.3z M25.4,224.1H12.1l-3,8.4h4.8v4.3H0v-4.3h4.1l12.7-33.7h7.4l12.2,33.7h4.9v4.3
	H22.7v-4.3h5.6L25.4,224.1z"/>
<g>
	<defs>
		<rect id="SVGID_5_" x="-377.8" y="-277.5" width="1224" height="792"/>
	</defs>
	<clipPath id="SVGID_6_">
		<use xlink:href="#SVGID_5_"  overflow="visible"/>
	</clipPath>
	<path clip-path="url(#SVGID_6_)" d="M64.1,232.6c9.1,0,12.9-4,12.9-15.1c0-10-3.9-14.3-13.3-14.3h-3.5v29.3H64.1z M46.8,232.6h5.9
		v-29.2h-5.9v-4.3h16.6c14.7,0,21.9,7.5,21.9,18.5c0,10.7-6.7,19.3-21.5,19.3h-17V232.6z"/>
</g>
<polygon points="94,203.4 89.1,203.4 89.1,199.1 107.7,199.1 107.7,203.4 102.1,203.4 111.4,229.7 111.8,229.7 121.4,203.4 
	116.6,203.4 116.6,199.1 130.5,199.1 130.5,203.4 126.3,203.4 113.4,237.1 106.6,237.1 "/>
<g>
	<defs>
		<rect id="SVGID_7_" x="-377.8" y="-277.5" width="1224" height="792"/>
	</defs>
	<clipPath id="SVGID_8_">
		<use xlink:href="#SVGID_7_"  overflow="visible"/>
	</clipPath>
	<path clip-path="url(#SVGID_8_)" d="M137.4,232.6h5.9v-29.2h-5.9v-4.3H172v12.8h-3.7c-1.8-7-2.5-8.6-7.1-8.6h-10.5v12.3h3.6
		c3.8,0,4.3-0.6,5.2-5.6h3.7v15.2h-3.7c-0.8-5.1-1.4-5.7-5.2-5.7h-3.6v13.1h10.2c5.4,0,6.1-1.9,7.9-9.8h3.7v14.1h-35.1V232.6z"/>
</g>
<polygon points="192.5,207.3 192,207.3 192,232.6 197.7,232.6 197.7,236.9 182,236.9 182,232.6 187.4,232.6 187.4,203.4 182,203.4 
	182,199.1 196.1,199.1 213.8,226.2 214.3,226.2 214.3,203.4 208.6,203.4 208.6,199.1 224.3,199.1 224.3,203.4 218.9,203.4 
	218.9,237.6 212.4,237.6 "/>
<g>
	<defs>
		<rect id="SVGID_9_" x="-377.8" y="-277.5" width="1224" height="792"/>
	</defs>
	<clipPath id="SVGID_10_">
		<use xlink:href="#SVGID_9_"  overflow="visible"/>
	</clipPath>
	<path clip-path="url(#SVGID_10_)" d="M239.8,232.6h6.4v-29.8h-2.1c-4.9,0-5.9,1.6-8.4,10.5h-3.5v-14.2h35.4v14.2H264
		c-2.5-8.9-3.6-10.5-8.4-10.5h-2.1v29.8h6.4v4.3h-20.1V232.6z"/>
	<path clip-path="url(#SVGID_10_)" d="M280.5,224.8v-21.4h-5.3v-4.3h18.2v4.3h-5.5v19.8c0,7.2,3.4,9.8,9.9,9.8
		c2.9,0,4.9-0.9,6.5-2.5c1.8-1.8,2.4-4.4,2.4-8.6v-18.5H301v-4.3h15.4v4.3h-5.1v21.3c0,7-5.1,13.2-15.3,13.2
		C285.7,237.8,280.5,232.6,280.5,224.8"/>
	<path clip-path="url(#SVGID_10_)" d="M342.5,216.3c5.5,0,7.4-2.3,7.4-6.8c0-4-1.6-6.1-6.8-6.1h-6.1v13H342.5z M336.8,232.6h5.9v4.3
		h-19.1v-4.3h5.9v-29.2h-5.9v-4.3h19.5c11.5,0,14.9,4.9,14.9,9.7c0,4.2-2.5,8.2-10.5,9.3v0.5c6.4,1,8.4,4,8.7,8.2l0.2,3.4
		c0.2,2.1,0.7,2.8,1.7,2.8c0.9,0,1.6-0.8,2.5-2.9l2.9,1.2c-1.1,3.8-3.3,6.4-7.3,6.4c-4.5,0-7.5-2.2-7.6-7.9l-0.1-3.5
		c-0.1-4-1-5.9-5.9-5.9h-5.8V232.6z"/>
	<path clip-path="url(#SVGID_10_)" d="M368.6,232.6h5.9v-29.2h-5.9v-4.3h34.5v12.8h-3.7c-1.8-7-2.5-8.6-7.1-8.6h-10.5v12.3h3.6
		c3.8,0,4.3-0.6,5.2-5.6h3.7v15.2h-3.7c-0.8-5.1-1.4-5.7-5.2-5.7h-3.6v13.1h10.2c5.4,0,6.1-1.9,7.9-9.8h3.7v14.1h-35.1V232.6z"/>
	<path clip-path="url(#SVGID_10_)" d="M414.1,223.8h4.1c3.5,7.1,6.3,9.9,12,9.9c4.3,0,6.8-2.2,6.8-5.7c0-4.1-4.4-5.2-9.8-6.7
		c-6.1-1.6-12.7-3.7-12.7-11.7c0-6.3,5.2-11.4,12.5-11.4c3.6,0,7.4,1.5,9.4,4.1l1.2-3.9h4.3v13.2h-4.1c-3-7-6.1-9.3-10.7-9.3
		c-3.7,0-5.9,2.2-5.9,5.3c0,4.5,4.7,5.6,10.1,7c6,1.4,12.4,3.3,12.4,11.2c0,6.9-5.6,12.1-13.3,12.1c-4.4,0-8.5-1.7-10.7-4.3
		l-1.3,4.1h-4.4V223.8z"/>
</g>
</svg>
